<svg width="60" height="60" viewBox="0 0 60 60" fill="none" xmlns="http://www.w3.org/2000/svg">
<rect x="2" y="2" width="56" height="56" rx="28" fill="#F9F5FF"/>
<rect x="2" y="2" width="56" height="56" rx="28" stroke="#F4EBFF" stroke-width="4"/>
<path d="M40.1111 41.375V38.8472C40.1111 37.5064 39.5785 36.2205 38.6304 35.2724C37.6823 34.3243 36.3964 33.7917 35.0556 33.7917H24.9445C23.6037 33.7917 22.3178 34.3243 21.3697 35.2724C20.4216 36.2205 19.8889 37.5064 19.8889 38.8472V41.375M35.0556 23.6806C35.0556 26.4727 32.7921 28.7361 30 28.7361C27.2079 28.7361 24.9445 26.4727 24.9445 23.6806C24.9445 20.8884 27.2079 18.625 30 18.625C32.7921 18.625 35.0556 20.8884 35.0556 23.6806Z" stroke="#7F56D9" stroke-width="2.33333" stroke-linecap="round" stroke-linejoin="round"/>
</svg>
