<svg width="24" height="24" viewBox="0 0 24 24" fill="none" xmlns="http://www.w3.org/2000/svg">
<path d="M12 19C11.4477 19 11 19.4477 11 20C11 20.5523 11.4477 21 12 21V19ZM21 21C21.5523 21 22 20.5523 22 20C22 19.4477 21.5523 19 21 19V21ZM16.5 3.49998L15.7929 2.79288L16.5 3.49998ZM18 2.87866V1.87866V2.87866ZM20.1213 4.99998H19.1213H20.1213ZM19.5 6.49998L18.7929 5.79288L19.5 6.49998ZM7 19L7.24254 19.9701C7.41837 19.9262 7.57895 19.8352 7.70711 19.7071L7 19ZM3 20L2.02986 19.7574C1.94466 20.0982 2.04451 20.4587 2.29289 20.7071C2.54127 20.9555 2.90176 21.0553 3.24254 20.9701L3 20ZM4 16L3.29289 15.2929C3.16473 15.421 3.07382 15.5816 3.02986 15.7574L4 16ZM12 21H21V19H12V21ZM17.2071 4.20709C17.4174 3.9968 17.7026 3.87866 18 3.87866V1.87866C17.1722 1.87866 16.3783 2.20751 15.7929 2.79288L17.2071 4.20709ZM18 3.87866C18.1473 3.87866 18.2931 3.90767 18.4291 3.96402L19.1945 2.11626C18.8158 1.9594 18.4099 1.87866 18 1.87866V3.87866ZM18.4291 3.96402C18.5652 4.02037 18.6888 4.10296 18.7929 4.20709L20.2071 2.79288C19.9173 2.50303 19.5732 2.27312 19.1945 2.11626L18.4291 3.96402ZM18.7929 4.20709C18.897 4.31121 18.9796 4.43483 19.036 4.57087L20.8837 3.8055C20.7269 3.42681 20.4969 3.08272 20.2071 2.79288L18.7929 4.20709ZM19.036 4.57087C19.0923 4.70692 19.1213 4.85273 19.1213 4.99998H21.1213C21.1213 4.59008 21.0406 4.1842 20.8837 3.8055L19.036 4.57087ZM19.1213 4.99998C19.1213 5.14724 19.0923 5.29305 19.036 5.42909L20.8837 6.19446C21.0406 5.81576 21.1213 5.40988 21.1213 4.99998H19.1213ZM19.036 5.42909C18.9796 5.56514 18.897 5.68875 18.7929 5.79288L20.2071 7.20709C20.4969 6.91725 20.7269 6.57316 20.8837 6.19446L19.036 5.42909ZM18.7929 5.79288L6.29289 18.2929L7.70711 19.7071L20.2071 7.20709L18.7929 5.79288ZM6.75746 18.0298L2.75746 19.0298L3.24254 20.9701L7.24254 19.9701L6.75746 18.0298ZM3.97014 20.2425L4.97014 16.2425L3.02986 15.7574L2.02986 19.7574L3.97014 20.2425ZM4.70711 16.7071L17.2071 4.20709L15.7929 2.79288L3.29289 15.2929L4.70711 16.7071Z" fill="#101828"/>
</svg>