<svg width="128" height="36" viewBox="0 0 128 36" fill="none" xmlns="http://www.w3.org/2000/svg">
<path d="M0.852 6.6H4.308L9.332 20.392C9.88667 21.992 10.3347 23.4747 10.676 24.84C11.0173 23.4747 11.476 21.992 12.052 20.392L17.108 6.6H20.5L12.18 29H9.172L0.852 6.6ZM28.9245 29.352C27.2178 29.352 25.6818 28.968 24.3165 28.2C22.9725 27.432 21.9058 26.376 21.1165 25.032C20.3485 23.6667 19.9645 22.1307 19.9645 20.424C19.9645 18.76 20.3485 17.2453 21.1165 15.88C21.8845 14.5147 22.9298 13.448 24.2525 12.68C25.5752 11.8907 27.0365 11.496 28.6365 11.496C30.1725 11.496 31.5698 11.8587 32.8285 12.584C34.0872 13.288 35.0685 14.2693 35.7725 15.528C36.4978 16.7653 36.8605 18.1413 36.8605 19.656C36.8605 20.1467 36.8285 20.616 36.7645 21.064H21.6285V18.408H33.5325C33.5112 17.64 33.2872 16.9467 32.8605 16.328C32.4338 15.688 31.8472 15.1867 31.1005 14.824C30.3538 14.4613 29.5218 14.28 28.6045 14.28C27.4738 14.28 26.4818 14.536 25.6285 15.048C24.7965 15.5387 24.1458 16.2427 23.6765 17.16C23.2285 18.056 23.0045 19.0907 23.0045 20.264C23.0045 21.5013 23.2498 22.6 23.7405 23.56C24.2312 24.4987 24.9138 25.224 25.7885 25.736C26.6845 26.2267 27.6978 26.472 28.8285 26.472C30.1512 26.472 31.2498 26.1947 32.1245 25.64C32.9992 25.0853 33.5432 24.2853 33.7565 23.24L36.9245 23.56C36.4765 25.3947 35.5592 26.824 34.1725 27.848C32.7858 28.8507 31.0365 29.352 28.9245 29.352ZM40.3033 5.256H43.4073V24.392C43.4073 25.3733 43.4286 26.3013 43.4713 27.176C43.5353 28.0293 43.6313 28.6373 43.7593 29H40.3033V5.256ZM49.6258 34.952C48.8791 34.952 48.1751 34.824 47.5138 34.568C46.8738 34.312 46.3084 33.992 45.8178 33.608L46.9058 30.792C47.3324 31.1333 47.7804 31.4107 48.2498 31.624C48.7191 31.8373 49.2098 31.944 49.7218 31.944C50.3404 31.944 50.8631 31.7413 51.2898 31.336C51.7164 30.952 52.0898 30.408 52.4098 29.704L54.2338 25.544L59.7698 11.848H63.0658L55.1618 30.728C54.6071 32.072 53.8924 33.1067 53.0178 33.832C52.1431 34.5787 51.0124 34.952 49.6258 34.952ZM45.9778 11.848H49.3058L55.2578 26.824L53.3698 29.448L45.9778 11.848ZM74.994 29.352C73.842 29.352 72.7753 29.16 71.794 28.776C70.834 28.392 69.9913 27.8373 69.266 27.112C68.562 26.3867 68.0073 25.512 67.602 24.488V16.36C68.2207 14.8027 69.17 13.608 70.45 12.776C71.73 11.9227 73.2447 11.496 74.994 11.496C76.5513 11.496 77.97 11.8907 79.25 12.68C80.5513 13.4693 81.5753 14.5467 82.322 15.912C83.0687 17.256 83.442 18.7493 83.442 20.392C83.442 22.0347 83.0687 23.5493 82.322 24.936C81.5753 26.3013 80.5513 27.3787 79.25 28.168C77.97 28.9573 76.5513 29.352 74.994 29.352ZM65.522 5.256H68.626V23.304L68.306 23.816V29H65.522V5.256ZM74.514 26.44C75.5807 26.44 76.562 26.1733 77.458 25.64C78.354 25.0853 79.058 24.3493 79.57 23.432C80.082 22.5147 80.338 21.512 80.338 20.424C80.338 19.3147 80.082 18.3013 79.57 17.384C79.058 16.4667 78.354 15.7413 77.458 15.208C76.562 14.6747 75.5807 14.408 74.514 14.408C73.3833 14.408 72.37 14.664 71.474 15.176C70.578 15.688 69.874 16.4027 69.362 17.32C68.8713 18.2373 68.626 19.272 68.626 20.424C68.626 21.5547 68.8713 22.5787 69.362 23.496C69.874 24.4133 70.578 25.1387 71.474 25.672C72.37 26.184 73.3833 26.44 74.514 26.44Z" fill="#344054"/>
<path d="M118.675 15.3039C119.452 13.1391 121.689 6.87695 121.689 4.87148C121.689 3.10508 120.647 1.62422 118.787 1.62422C115.826 1.62422 113.169 10.3699 112.339 12.4551C111.695 10.5625 108.68 1 106.024 1C103.959 1 102.989 2.5207 102.989 4.4332C102.989 6.77734 105.261 12.8535 106.084 15.191C105.666 15.0383 105.214 14.9055 104.756 14.9055C103.202 14.9055 101.548 16.8379 101.548 18.3984C101.548 18.9895 101.874 19.8195 102.08 20.3707C99.6293 21.0348 98.6863 22.6684 98.6863 25.132C98.6796 29.9266 103.222 35 109.61 35C117.446 35 122.32 29.1164 122.32 21.5262C122.32 18.6641 121.862 16.0809 118.675 15.3039V15.3039ZM116.324 8.17188C116.589 7.35508 117.725 3.90195 118.787 3.90195C119.359 3.90195 119.511 4.49297 119.511 4.96445C119.511 6.23281 116.948 13.2387 116.384 14.7926L114.126 14.3941L116.324 8.17188V8.17188ZM105.075 4.20742C105.075 3.41719 106.037 1.17266 108.149 7.33516L110.447 13.9957C109.411 13.9094 108.607 13.7965 108.096 14.0887C107.372 12.1762 105.075 6.13984 105.075 4.20742V4.20742ZM104.922 17.2031C106.868 17.2031 109.378 23.4852 109.378 24.3352C109.378 24.6738 109.052 25.0922 108.674 25.0922C107.286 25.0922 103.567 19.9855 103.567 18.6043C103.574 18.093 104.411 17.2031 104.922 17.2031V17.2031ZM117.161 29.5746C115.228 31.6996 112.758 32.802 109.876 32.802C105.931 32.802 102.817 30.6371 101.316 26.9383C100.18 24.0563 101.568 22.4027 102.684 22.4027C103.441 22.4027 106.29 26.407 106.29 27.257C106.29 27.5824 105.778 27.8082 105.513 27.8082C104.444 27.8082 104.025 26.7789 102.119 24.3949C100.147 26.3672 103.481 30.1656 105.991 30.1656C107.724 30.1656 108.853 28.5586 108.514 27.3766C108.76 27.3766 109.066 27.3965 109.291 27.3367C109.364 29.1363 109.896 31.2812 112.061 31.434C112.061 31.3742 112.193 30.9625 112.193 30.9426C112.193 29.7871 111.489 28.7777 111.489 27.6023C111.489 25.723 112.93 23.9035 114.391 22.841C114.923 22.4426 115.567 22.1969 116.191 21.9711C116.835 21.7254 117.519 21.4398 118.011 20.9484C117.937 20.2047 117.632 19.5473 116.888 19.5473C115.049 19.5473 108.88 19.8129 108.88 16.9109C108.88 16.466 108.886 16.041 110.035 16.041C112.18 16.041 117.625 16.5723 119.219 17.9734C120.421 19.0426 120.833 25.4906 117.161 29.5746V29.5746ZM110.613 21.2074C111.257 21.4133 111.921 21.473 112.585 21.6059C112.094 21.9645 111.655 22.4027 111.237 22.8742C111.051 22.3098 110.825 21.7586 110.613 21.2074V21.2074Z" fill="#344054"/>
</svg>
